<?xml version="1.0" encoding="UTF-8" standalone="no"?>
<svg
   xmlns:dc="http://purl.org/dc/elements/1.1/"
   xmlns:cc="http://creativecommons.org/ns#"
   xmlns:rdf="http://www.w3.org/1999/02/22-rdf-syntax-ns#"
   xmlns:svg="http://www.w3.org/2000/svg"
   xmlns="http://www.w3.org/2000/svg"
   id="svg8"
   version="1.1"
   viewBox="0 0 270.93333 270.93334"
   height="1024"
   width="1024">
  <defs
     id="defs2" />
  <metadata
     id="metadata5">
    <rdf:RDF>
      <cc:Work
         rdf:about="">
        <dc:format>image/svg+xml</dc:format>
        <dc:type
           rdf:resource="http://purl.org/dc/dcmitype/StillImage" />
        <dc:title></dc:title>
      </cc:Work>
    </rdf:RDF>
  </metadata>
  <g
     transform="translate(0,-26.06665)"
     id="layer1">
    <path
       id="rect4550"
       d="m 10.408206,118.59452 v 85.8776 H 260.52513 v -85.8776 z m 51.901664,14.05306 h 188.10438 v 35.57783 H 62.30987 Z M 35.264773,135.69 A 14.746818,14.746818 0 0 1 50.012036,150.43729 14.746818,14.746818 0 0 1 35.264773,165.18299 14.746818,14.746818 0 0 1 20.517505,150.43729 14.746818,14.746818 0 0 1 35.264773,135.69 Z m -11.42178,43.1618 h 22.843561 v 11.56726 H 23.842993 Z m 42.737989,0 h 11.565675 v 11.56726 H 66.580982 Z m 20.999762,0 h 11.565675 v 11.56726 H 87.580744 Z m 20.998166,0 h 11.56728 v 11.56726 h -11.56728 z m 21.00134,0 h 11.56569 v 11.56726 h -11.56569 z m 20.99976,0 h 11.5657 v 11.56726 h -11.5657 z m 20.99975,0 h 11.56571 v 11.56726 h -11.56571 z m 20.99976,0 h 11.5657 v 11.56726 h -11.5657 z m 20.99977,0 h 11.56569 v 11.56726 h -11.56569 z m 20.99975,0 h 11.5657 v 11.56726 h -11.5657 z"
       style="opacity:1;fill:#ff0000;fill-opacity:1;stroke:none;stroke-width:6.12003231;stroke-miterlimit:4;stroke-dasharray:none;stroke-opacity:1" />
  </g>
</svg>
